<mxfile host="app.diagrams.net" modified="2023-05-28T18:57:08.888Z" agent="Mozilla/5.0 (Windows NT 10.0; Win64; x64; rv:109.0) Gecko/20100101 Firefox/113.0" version="21.3.3" etag="ERlHgXeKMhqi016WtAmC" type="github">
  <diagram name="Page-1" id="KFUTWhOyUO4yL2ANAok9">
    <mxGraphModel>
      <root>
        <mxCell id="0" />
        <mxCell id="1" parent="0" />
      </root>
    </mxGraphModel>
  </diagram>
</mxfile>
